<svg width="494" height="120" viewBox="0 0 494 120" fill="none" xmlns="http://www.w3.org/2000/svg">
<g filter="url(#filter0_d_2_9)">
<path fill-rule="evenodd" clip-rule="evenodd" d="M45.8925 1.79204C21.7939 8.04596 4 29.945 4 56C4 69.7991 8.99105 82.4326 17.2664 92.1935L45.8925 1.79204ZM32.2096 104.629C40.3989 109.319 49.8863 112 60 112C90.9279 112 116 86.9279 116 56C116 26.847 93.7232 2.89712 65.2635 0.24411L32.2096 104.629Z" fill="#FF00B4"/>
</g>
<path d="M142.64 17.76L144.496 7.2H164.144L162.288 17.76H142.64ZM139.696 35.104L141.424 25.376H160.432L158.704 35.168L139.696 35.104ZM136.304 7.2H148.016L140.336 52H128.624L136.304 7.2ZM177.407 22.56L172.287 52H161.663L166.719 22.56H177.407ZM183.999 33.824C183.572 33.3547 183.103 32.9707 182.591 32.672C182.079 32.3307 181.46 32.16 180.735 32.16C179.711 32.1173 178.772 32.3947 177.919 32.992C177.065 33.5467 176.34 34.3147 175.743 35.296C175.145 36.2773 174.783 37.3227 174.655 38.432L173.439 34.016C173.823 31.968 174.591 30.0267 175.743 28.192C176.937 26.3147 178.345 24.7787 179.967 23.584C181.588 22.3893 183.231 21.792 184.895 21.792C186.004 21.792 186.964 22.048 187.775 22.56C188.628 23.072 189.332 23.712 189.887 24.48L183.999 33.824ZM189.196 37.216C189.622 34.144 190.732 31.456 192.524 29.152C194.316 26.848 196.577 25.056 199.308 23.776C202.038 22.496 204.982 21.856 208.14 21.856C211.254 21.856 213.985 22.5173 216.332 23.84C218.721 25.1627 220.513 26.9973 221.708 29.344C222.945 31.648 223.372 34.2933 222.988 37.28C222.604 40.352 221.494 43.04 219.66 45.344C217.868 47.648 215.606 49.44 212.876 50.72C210.188 52 207.244 52.64 204.044 52.64C200.929 52.64 198.177 52 195.788 50.72C193.441 49.3973 191.649 47.584 190.411 45.28C189.217 42.9333 188.812 40.2453 189.196 37.216ZM200.332 37.28C200.204 38.3893 200.289 39.4347 200.588 40.416C200.929 41.3547 201.441 42.1227 202.124 42.72C202.849 43.3173 203.745 43.616 204.812 43.616C205.964 43.6587 207.03 43.4027 208.012 42.848C208.993 42.2507 209.825 41.4613 210.508 40.48C211.233 39.4987 211.66 38.4107 211.788 37.216C211.958 36.064 211.894 35.0187 211.596 34.08C211.297 33.1413 210.785 32.3733 210.06 31.776C209.334 31.1787 208.417 30.8587 207.308 30.816C206.241 30.7733 205.196 31.0507 204.172 31.648C203.19 32.2453 202.358 33.0347 201.676 34.016C200.993 34.9973 200.545 36.0853 200.332 37.28ZM246.985 34.08C247.07 33.2693 247.07 32.5227 246.985 31.84C246.942 31.1147 246.708 30.5173 246.281 30.048C245.854 29.536 245.15 29.28 244.169 29.28C243.273 29.28 242.484 29.472 241.801 29.856C241.118 30.24 240.564 30.7733 240.137 31.456C239.71 32.1387 239.412 32.9707 239.241 33.952L236.105 52H225.225L230.281 22.56H241.161L240.585 26.592C241.566 25.1413 242.782 23.9893 244.233 23.136C245.726 22.2827 247.518 21.856 249.609 21.856C252.041 21.8133 253.961 22.2827 255.369 23.264C256.777 24.2453 257.716 25.568 258.185 27.232C258.697 28.896 258.782 30.7947 258.441 32.928L255.177 52H243.785L246.985 34.08ZM263.834 22.56H284.57L282.97 31.52H262.234L263.834 22.56ZM270.682 12.32H281.114L274.266 52H263.898L270.682 12.32ZM318.672 32.224H330.896L340.496 52H326.672L318.672 32.224ZM310.992 7.2H323.216L315.536 52H303.312L310.992 7.2ZM316.944 17.696L318.672 7.2H327.824C331.322 7.2 334.288 7.81866 336.72 9.056C339.152 10.2933 340.944 12.0427 342.096 14.304C343.248 16.5227 343.632 19.1467 343.248 22.176C342.864 25.248 341.776 27.9147 339.984 30.176C338.234 32.4373 335.93 34.1653 333.072 35.36C330.256 36.5547 327.034 37.152 323.408 37.152H313.488L315.216 27.744H323.344C324.538 27.744 325.626 27.552 326.608 27.168C327.632 26.7413 328.485 26.144 329.168 25.376C329.85 24.608 330.277 23.6907 330.448 22.624C330.661 21.6 330.576 20.7253 330.192 20C329.85 19.2747 329.274 18.72 328.464 18.336C327.696 17.9093 326.736 17.696 325.584 17.696H316.944ZM370.852 22.56H381.732L376.676 52H365.796L370.852 22.56ZM345.124 37.216C345.508 34.272 346.447 31.648 347.94 29.344C349.476 27.04 351.375 25.2267 353.636 23.904C355.897 22.5813 358.308 21.92 360.868 21.92C362.873 21.92 364.58 22.3467 365.988 23.2C367.396 24.0107 368.527 25.1413 369.38 26.592C370.233 28 370.788 29.6427 371.044 31.52C371.343 33.3547 371.364 35.2747 371.108 37.28C370.852 39.3707 370.297 41.3547 369.444 43.232C368.591 45.0667 367.524 46.688 366.244 48.096C364.964 49.504 363.471 50.6133 361.764 51.424C360.1 52.192 358.287 52.576 356.324 52.576C353.764 52.576 351.588 51.8933 349.796 50.528C348.004 49.12 346.681 47.264 345.828 44.96C345.017 42.6133 344.783 40.032 345.124 37.216ZM356.516 37.28C356.388 38.3467 356.452 39.392 356.708 40.416C357.007 41.44 357.519 42.272 358.244 42.912C359.012 43.552 359.951 43.872 361.06 43.872C361.913 43.9147 362.724 43.7653 363.492 43.424C364.303 43.0827 365.028 42.592 365.668 41.952C366.351 41.312 366.905 40.5867 367.332 39.776C367.801 38.9653 368.121 38.112 368.292 37.216C368.42 36.3627 368.399 35.552 368.228 34.784C368.1 34.016 367.844 33.3333 367.46 32.736C367.076 32.096 366.585 31.6053 365.988 31.264C365.391 30.88 364.708 30.6667 363.94 30.624C362.788 30.5813 361.679 30.88 360.612 31.52C359.545 32.1173 358.649 32.928 357.924 33.952C357.199 34.976 356.729 36.0853 356.516 37.28ZM405.048 34.08C405.133 33.2693 405.133 32.5227 405.048 31.84C405.005 31.1147 404.77 30.5173 404.344 30.048C403.917 29.536 403.213 29.28 402.232 29.28C401.336 29.28 400.546 29.472 399.864 29.856C399.181 30.24 398.626 30.7733 398.2 31.456C397.773 32.1387 397.474 32.9707 397.304 33.952L394.168 52H383.288L388.344 22.56H399.224L398.648 26.592C399.629 25.1413 400.845 23.9893 402.296 23.136C403.789 22.2827 405.581 21.856 407.672 21.856C410.104 21.8133 412.024 22.2827 413.432 23.264C414.84 24.2453 415.778 25.568 416.248 27.232C416.76 28.896 416.845 30.7947 416.504 32.928L413.24 52H401.848L405.048 34.08ZM418.569 54.112L428.937 54.176C429.022 55.2 429.235 56.032 429.577 56.672C429.918 57.3547 430.43 57.8667 431.113 58.208C431.795 58.592 432.649 58.784 433.673 58.784C435.081 58.784 436.339 58.464 437.449 57.824C438.558 57.184 439.475 56.288 440.201 55.136C440.926 54.0267 441.395 52.7467 441.609 51.296L446.601 22.56H457.033L452.169 51.36C451.614 54.816 450.483 57.7387 448.777 60.128C447.113 62.5173 444.958 64.3307 442.313 65.568C439.71 66.8053 436.766 67.424 433.481 67.424C430.11 67.424 427.315 66.8907 425.097 65.824C422.921 64.7573 421.299 63.2213 420.233 61.216C419.209 59.2533 418.654 56.8853 418.569 54.112ZM421.065 36.704C421.449 33.76 422.387 31.1787 423.881 28.96C425.417 26.7413 427.294 25.0133 429.513 23.776C431.774 22.5387 434.163 21.92 436.681 21.92C438.643 21.92 440.329 22.3253 441.737 23.136C443.187 23.904 444.339 24.9707 445.193 26.336C446.089 27.7013 446.686 29.28 446.985 31.072C447.283 32.8213 447.305 34.72 447.049 36.768C446.793 38.8587 446.238 40.8213 445.385 42.656C444.531 44.448 443.465 46.0267 442.185 47.392C440.905 48.7147 439.433 49.76 437.769 50.528C436.105 51.2533 434.313 51.616 432.393 51.616C429.833 51.616 427.635 50.976 425.801 49.696C423.966 48.3733 422.622 46.6027 421.769 44.384C420.915 42.1227 420.681 39.5627 421.065 36.704ZM432.393 36.832C432.265 37.9413 432.35 38.9653 432.649 39.904C432.99 40.8 433.523 41.5253 434.249 42.08C435.017 42.592 435.977 42.848 437.128 42.848C437.897 42.8907 438.665 42.7627 439.433 42.464C440.201 42.1653 440.926 41.7387 441.609 41.184C442.291 40.6293 442.846 39.968 443.273 39.2C443.742 38.432 444.062 37.6 444.233 36.704C444.318 35.808 444.275 34.9973 444.105 34.272C443.977 33.5467 443.699 32.9067 443.273 32.352C442.889 31.7973 442.398 31.3707 441.801 31.072C441.203 30.7733 440.521 30.624 439.753 30.624C438.515 30.5813 437.363 30.8373 436.297 31.392C435.273 31.9467 434.419 32.6933 433.737 33.632C433.054 34.5707 432.606 35.6373 432.393 36.832ZM475.242 52.64C472.084 52.64 469.354 52.1067 467.05 51.04C464.746 49.9307 462.954 48.3733 461.674 46.368C460.394 44.3627 459.754 41.9733 459.754 39.2C459.754 36.7253 460.202 34.4427 461.098 32.352C462.036 30.2187 463.338 28.384 465.002 26.848C466.708 25.312 468.735 24.1173 471.082 23.264C473.428 22.368 476.031 21.92 478.89 21.92C482.047 21.92 484.671 22.4533 486.762 23.52C488.895 24.5867 490.495 26.1013 491.562 28.064C492.628 29.984 493.162 32.3093 493.162 35.04C493.162 35.7653 493.098 36.5333 492.97 37.344C492.842 38.1547 492.671 38.9013 492.458 39.584H465.13V33.888H483.498L481.13 36.832C481.386 36.448 481.599 36.0213 481.77 35.552C481.94 35.0827 482.026 34.6773 482.026 34.336C482.026 33.2267 481.876 32.2667 481.578 31.456C481.279 30.6453 480.831 30.0267 480.234 29.6C479.636 29.1733 478.826 28.96 477.802 28.96C476.82 28.96 475.924 29.152 475.114 29.536C474.346 29.92 473.684 30.4747 473.13 31.2C472.575 31.8827 472.106 32.7573 471.722 33.824C471.338 34.8907 471.018 36.1493 470.762 37.6C470.463 39.0507 470.463 40.352 470.762 41.504C471.103 42.6133 471.679 43.488 472.49 44.128C473.343 44.7253 474.388 45.024 475.626 45.024C477.119 45.024 478.399 44.7253 479.466 44.128C480.575 43.5307 481.492 42.6987 482.218 41.632L491.882 43.616C490.346 46.56 488.17 48.8 485.354 50.336C482.538 51.872 479.167 52.64 475.242 52.64ZM145.2 91.456L139.184 112H126.064L141.744 64.96L156.144 90.624L179.76 64.576L179.184 112H166.256L167.28 91.84L153.52 107.904L145.2 91.456ZM185.821 97.216C186.247 94.144 187.357 91.456 189.149 89.152C190.941 86.848 193.202 85.056 195.933 83.776C198.663 82.496 201.607 81.856 204.765 81.856C207.879 81.856 210.61 82.5173 212.957 83.84C215.346 85.1627 217.138 86.9973 218.333 89.344C219.57 91.648 219.997 94.2933 219.613 97.28C219.229 100.352 218.119 103.04 216.285 105.344C214.493 107.648 212.231 109.44 209.501 110.72C206.813 112 203.869 112.64 200.669 112.64C197.554 112.64 194.802 112 192.413 110.72C190.066 109.397 188.274 107.584 187.036 105.28C185.842 102.933 185.437 100.245 185.821 97.216ZM196.957 97.28C196.829 98.3893 196.914 99.4347 197.213 100.416C197.554 101.355 198.066 102.123 198.749 102.72C199.474 103.317 200.37 103.616 201.437 103.616C202.589 103.659 203.655 103.403 204.637 102.848C205.618 102.251 206.45 101.461 207.133 100.48C207.858 99.4987 208.285 98.4107 208.413 97.216C208.583 96.064 208.519 95.0187 208.221 94.08C207.922 93.1413 207.41 92.3733 206.685 91.776C205.959 91.1787 205.042 90.8587 203.933 90.816C202.866 90.7733 201.821 91.0507 200.797 91.648C199.815 92.2453 198.983 93.0347 198.301 94.016C197.618 94.9973 197.17 96.0853 196.957 97.28ZM252.058 62.08H263.002L254.426 112H243.482L252.058 62.08ZM222.874 97.216C223.258 94.272 224.197 91.648 225.69 89.344C227.226 87.04 229.125 85.2267 231.386 83.904C233.647 82.5813 236.058 81.92 238.618 81.92C240.623 81.92 242.33 82.3467 243.738 83.2C245.146 84.0107 246.277 85.1413 247.13 86.592C247.983 88 248.538 89.6427 248.794 91.52C249.093 93.3547 249.114 95.2747 248.858 97.28C248.602 99.3707 248.047 101.355 247.194 103.232C246.341 105.067 245.274 106.688 243.994 108.096C242.714 109.504 241.221 110.613 239.514 111.424C237.85 112.192 236.037 112.576 234.074 112.576C231.514 112.576 229.338 111.893 227.546 110.528C225.754 109.12 224.431 107.264 223.578 104.96C222.767 102.613 222.533 100.032 222.874 97.216ZM234.266 97.28C234.138 98.3467 234.202 99.392 234.458 100.416C234.757 101.44 235.269 102.272 235.994 102.912C236.762 103.552 237.701 103.872 238.81 103.872C239.663 103.915 240.474 103.765 241.242 103.424C242.053 103.083 242.778 102.592 243.418 101.952C244.101 101.312 244.655 100.587 245.082 99.776C245.551 98.9653 245.871 98.112 246.042 97.216C246.17 96.3627 246.149 95.552 245.978 94.784C245.85 94.016 245.594 93.3333 245.21 92.736C244.826 92.096 244.335 91.6053 243.738 91.264C243.141 90.88 242.458 90.6667 241.69 90.624C240.538 90.5813 239.429 90.88 238.362 91.52C237.295 92.1173 236.399 92.928 235.674 93.952C234.949 94.976 234.479 96.0853 234.266 97.28ZM277.742 112.64C274.584 112.64 271.854 112.107 269.55 111.04C267.246 109.931 265.454 108.373 264.174 106.368C262.894 104.363 262.254 101.973 262.254 99.2C262.254 96.7253 262.702 94.4427 263.598 92.352C264.536 90.2187 265.838 88.384 267.502 86.848C269.208 85.312 271.235 84.1173 273.582 83.264C275.928 82.368 278.531 81.92 281.39 81.92C284.547 81.92 287.171 82.4533 289.262 83.52C291.395 84.5867 292.995 86.1013 294.062 88.064C295.128 89.984 295.662 92.3093 295.662 95.04C295.662 95.7653 295.598 96.5333 295.47 97.344C295.342 98.1547 295.171 98.9013 294.958 99.584H267.63V93.888H285.998L283.63 96.832C283.886 96.448 284.099 96.0213 284.27 95.552C284.44 95.0827 284.526 94.6773 284.526 94.336C284.526 93.2267 284.376 92.2667 284.078 91.456C283.779 90.6453 283.331 90.0267 282.734 89.6C282.136 89.1733 281.326 88.96 280.302 88.96C279.32 88.96 278.424 89.152 277.614 89.536C276.846 89.92 276.184 90.4747 275.63 91.2C275.075 91.8827 274.606 92.7573 274.222 93.824C273.838 94.8907 273.518 96.1493 273.262 97.6C272.963 99.0507 272.963 100.352 273.262 101.504C273.603 102.613 274.179 103.488 274.99 104.128C275.843 104.725 276.888 105.024 278.126 105.024C279.619 105.024 280.899 104.725 281.966 104.128C283.075 103.531 283.992 102.699 284.718 101.632L294.382 103.616C292.846 106.56 290.67 108.8 287.854 110.336C285.038 111.872 281.667 112.64 277.742 112.64ZM313.469 82.56L308.349 112H297.725L302.781 82.56H313.469ZM320.061 93.824C319.634 93.3547 319.165 92.9707 318.653 92.672C318.141 92.3307 317.522 92.16 316.797 92.16C315.773 92.1173 314.834 92.3947 313.981 92.992C313.128 93.5467 312.402 94.3147 311.805 95.296C311.208 96.2773 310.845 97.3227 310.717 98.432L309.501 94.016C309.885 91.968 310.653 90.0267 311.805 88.192C313 86.3147 314.408 84.7787 316.029 83.584C317.65 82.3893 319.293 81.792 320.957 81.792C322.066 81.792 323.026 82.048 323.837 82.56C324.69 83.072 325.394 83.712 325.949 84.48L320.061 93.824ZM351.54 82.56H362.42L357.364 112H346.484L351.54 82.56ZM325.812 97.216C326.196 94.272 327.134 91.648 328.628 89.344C330.164 87.04 332.062 85.2267 334.324 83.904C336.585 82.5813 338.996 81.92 341.556 81.92C343.561 81.92 345.268 82.3467 346.676 83.2C348.084 84.0107 349.214 85.1413 350.068 86.592C350.921 88 351.476 89.6427 351.732 91.52C352.03 93.3547 352.052 95.2747 351.796 97.28C351.54 99.3707 350.985 101.355 350.132 103.232C349.278 105.067 348.212 106.688 346.932 108.096C345.652 109.504 344.158 110.613 342.452 111.424C340.788 112.192 338.974 112.576 337.012 112.576C334.452 112.576 332.276 111.893 330.484 110.528C328.692 109.12 327.369 107.264 326.516 104.96C325.705 102.613 325.47 100.032 325.812 97.216ZM337.204 97.28C337.076 98.3467 337.14 99.392 337.396 100.416C337.694 101.44 338.206 102.272 338.932 102.912C339.7 103.552 340.638 103.872 341.748 103.872C342.601 103.915 343.412 103.765 344.18 103.424C344.99 103.083 345.716 102.592 346.356 101.952C347.038 101.312 347.593 100.587 348.02 99.776C348.489 98.9653 348.809 98.112 348.98 97.216C349.108 96.3627 349.086 95.552 348.916 94.784C348.788 94.016 348.532 93.3333 348.148 92.736C347.764 92.096 347.273 91.6053 346.676 91.264C346.078 90.88 345.396 90.6667 344.628 90.624C343.476 90.5813 342.366 90.88 341.3 91.52C340.233 92.1173 339.337 92.928 338.612 93.952C337.886 94.976 337.417 96.0853 337.204 97.28ZM365.959 82.56H386.695L385.095 91.52H364.359L365.959 82.56ZM372.807 72.32H383.239L376.391 112H366.023L372.807 72.32ZM401.867 112.64C398.709 112.64 395.979 112.107 393.675 111.04C391.371 109.931 389.579 108.373 388.299 106.368C387.019 104.363 386.379 101.973 386.379 99.2C386.379 96.7253 386.827 94.4427 387.723 92.352C388.661 90.2187 389.963 88.384 391.627 86.848C393.333 85.312 395.36 84.1173 397.707 83.264C400.053 82.368 402.656 81.92 405.515 81.92C408.672 81.92 411.296 82.4533 413.387 83.52C415.52 84.5867 417.12 86.1013 418.187 88.064C419.253 89.984 419.787 92.3093 419.787 95.04C419.787 95.7653 419.723 96.5333 419.595 97.344C419.467 98.1547 419.296 98.9013 419.083 99.584H391.755V93.888H410.123L407.755 96.832C408.011 96.448 408.224 96.0213 408.395 95.552C408.565 95.0827 408.651 94.6773 408.651 94.336C408.651 93.2267 408.501 92.2667 408.203 91.456C407.904 90.6453 407.456 90.0267 406.859 89.6C406.261 89.1733 405.451 88.96 404.427 88.96C403.445 88.96 402.549 89.152 401.739 89.536C400.971 89.92 400.309 90.4747 399.755 91.2C399.2 91.8827 398.731 92.7573 398.347 93.824C397.963 94.8907 397.643 96.1493 397.387 97.6C397.088 99.0507 397.088 100.352 397.387 101.504C397.728 102.613 398.304 103.488 399.115 104.128C399.968 104.725 401.013 105.024 402.251 105.024C403.744 105.024 405.024 104.725 406.091 104.128C407.2 103.531 408.117 102.699 408.843 101.632L418.507 103.616C416.971 106.56 414.795 108.8 411.979 110.336C409.163 111.872 405.792 112.64 401.867 112.64ZM425.754 100.8C426.991 101.867 428.165 102.763 429.274 103.488C430.383 104.213 431.429 104.768 432.41 105.152C433.434 105.493 434.373 105.621 435.226 105.536C435.909 105.493 436.506 105.28 437.018 104.896C437.53 104.512 437.807 104.043 437.85 103.488C437.893 102.848 437.701 102.336 437.274 101.952C436.89 101.568 436.293 101.205 435.482 100.864C434.671 100.523 433.733 100.16 432.666 99.776C431.301 99.264 430.042 98.624 428.89 97.856C427.781 97.088 426.927 96.0853 426.33 94.848C425.733 93.6107 425.519 92.16 425.69 90.496C425.903 88.576 426.565 86.9973 427.674 85.76C428.783 84.48 430.213 83.52 431.962 82.88C433.754 82.24 435.674 81.92 437.722 81.92C440.154 81.92 442.394 82.304 444.442 83.072C446.533 83.84 448.495 84.7787 450.33 85.888L446.298 93.184C445.189 92.0747 443.909 91.136 442.458 90.368C441.05 89.5573 439.663 89.152 438.298 89.152C437.573 89.152 436.933 89.3013 436.378 89.6C435.866 89.8987 435.567 90.304 435.482 90.816C435.397 91.4987 435.631 92.0533 436.186 92.48C436.783 92.864 437.551 93.2267 438.49 93.568C439.471 93.8667 440.474 94.208 441.498 94.592C442.863 95.1467 444.101 95.808 445.21 96.576C446.319 97.344 447.194 98.304 447.834 99.456C448.474 100.565 448.709 101.952 448.538 103.616C448.367 105.749 447.727 107.541 446.618 108.992C445.551 110.4 444.122 111.467 442.33 112.192C440.581 112.917 438.597 113.301 436.378 113.344C434.33 113.344 432.41 113.131 430.618 112.704C428.826 112.277 427.119 111.68 425.498 110.912C423.877 110.144 422.319 109.269 420.826 108.288L425.754 100.8Z" fill="#FF00B4"/>
<defs>
<filter id="filter0_d_2_9" x="0" y="0.24411" width="120" height="119.756" filterUnits="userSpaceOnUse" color-interpolation-filters="sRGB">
<feFlood flood-opacity="0" result="BackgroundImageFix"/>
<feColorMatrix in="SourceAlpha" type="matrix" values="0 0 0 0 0 0 0 0 0 0 0 0 0 0 0 0 0 0 127 0" result="hardAlpha"/>
<feOffset dy="4"/>
<feGaussianBlur stdDeviation="2"/>
<feComposite in2="hardAlpha" operator="out"/>
<feColorMatrix type="matrix" values="0 0 0 0 0 0 0 0 0 0 0 0 0 0 0 0 0 0 0.25 0"/>
<feBlend mode="normal" in2="BackgroundImageFix" result="effect1_dropShadow_2_9"/>
<feBlend mode="normal" in="SourceGraphic" in2="effect1_dropShadow_2_9" result="shape"/>
</filter>
</defs>
</svg>
