<svg width="469" height="120" viewBox="0 0 469 120" fill="none" xmlns="http://www.w3.org/2000/svg">
<path d="M142.64 17.76L144.496 7.2H164.144L162.288 17.76H142.64ZM139.696 35.104L141.424 25.376H160.432L158.704 35.168L139.696 35.104ZM136.304 7.2H148.016L140.336 52H128.624L136.304 7.2ZM174.847 22.56L169.727 52H159.103L164.159 22.56H174.847ZM181.439 33.824C181.012 33.3547 180.543 32.9707 180.031 32.672C179.519 32.3307 178.9 32.16 178.175 32.16C177.151 32.1173 176.212 32.3947 175.359 32.992C174.505 33.5467 173.78 34.3147 173.183 35.296C172.585 36.2773 172.223 37.3227 172.095 38.432L170.879 34.016C171.263 31.968 172.031 30.0267 173.183 28.192C174.377 26.3147 175.785 24.7787 177.407 23.584C179.028 22.3893 180.671 21.792 182.335 21.792C183.444 21.792 184.404 22.048 185.215 22.56C186.068 23.072 186.772 23.712 187.327 24.48L181.439 33.824ZM184.076 37.216C184.502 34.144 185.612 31.456 187.404 29.152C189.196 26.848 191.457 25.056 194.188 23.776C196.918 22.496 199.862 21.856 203.02 21.856C206.134 21.856 208.865 22.5173 211.212 23.84C213.601 25.1627 215.393 26.9973 216.588 29.344C217.825 31.648 218.252 34.2933 217.868 37.28C217.484 40.352 216.374 43.04 214.54 45.344C212.748 47.648 210.486 49.44 207.756 50.72C205.068 52 202.124 52.64 198.924 52.64C195.809 52.64 193.057 52 190.668 50.72C188.321 49.3973 186.529 47.584 185.292 45.28C184.097 42.9333 183.692 40.2453 184.076 37.216ZM195.212 37.28C195.084 38.3893 195.169 39.4347 195.468 40.416C195.809 41.3547 196.321 42.1227 197.004 42.72C197.729 43.3173 198.625 43.616 199.692 43.616C200.844 43.6587 201.91 43.4027 202.892 42.848C203.873 42.2507 204.705 41.4613 205.388 40.48C206.113 39.4987 206.54 38.4107 206.668 37.216C206.838 36.064 206.774 35.0187 206.476 34.08C206.177 33.1413 205.665 32.3733 204.94 31.776C204.214 31.1787 203.297 30.8587 202.188 30.816C201.121 30.7733 200.076 31.0507 199.052 31.648C198.07 32.2453 197.238 33.0347 196.556 34.016C195.873 34.9973 195.425 36.0853 195.212 37.28ZM239.305 34.08C239.39 33.2693 239.39 32.5227 239.305 31.84C239.262 31.1147 239.028 30.5173 238.601 30.048C238.174 29.536 237.47 29.28 236.489 29.28C235.593 29.28 234.804 29.472 234.121 29.856C233.438 30.24 232.884 30.7733 232.457 31.456C232.03 32.1387 231.732 32.9707 231.561 33.952L228.425 52H217.545L222.601 22.56H233.481L232.905 26.592C233.886 25.1413 235.102 23.9893 236.553 23.136C238.046 22.2827 239.838 21.856 241.929 21.856C244.361 21.8133 246.281 22.2827 247.689 23.264C249.097 24.2453 250.036 25.568 250.505 27.232C251.017 28.896 251.102 30.7947 250.761 32.928L247.497 52H236.105L239.305 34.08ZM253.594 22.56H274.33L272.73 31.52H251.994L253.594 22.56ZM260.442 12.32H270.874L264.026 52H253.658L260.442 12.32ZM303.312 32.224H315.536L325.136 52H311.312L303.312 32.224ZM295.632 7.2H307.856L300.175 52H287.951L295.632 7.2ZM301.583 17.696L303.312 7.2H312.464C315.962 7.2 318.928 7.81866 321.36 9.056C323.792 10.2933 325.583 12.0427 326.736 14.304C327.888 16.5227 328.272 19.1467 327.888 22.176C327.504 25.248 326.416 27.9147 324.624 30.176C322.874 32.4373 320.57 34.1653 317.712 35.36C314.896 36.5547 311.674 37.152 308.048 37.152H298.127L299.856 27.744H307.983C309.178 27.744 310.266 27.552 311.248 27.168C312.272 26.7413 313.125 26.144 313.808 25.376C314.49 24.608 314.917 23.6907 315.088 22.624C315.301 21.6 315.216 20.7253 314.832 20C314.49 19.2747 313.914 18.72 313.104 18.336C312.336 17.9093 311.376 17.696 310.224 17.696H301.583ZM352.932 22.56H363.812L358.756 52H347.876L352.932 22.56ZM327.204 37.216C327.588 34.272 328.527 31.648 330.02 29.344C331.556 27.04 333.455 25.2267 335.716 23.904C337.977 22.5813 340.388 21.92 342.948 21.92C344.953 21.92 346.66 22.3467 348.068 23.2C349.476 24.0107 350.607 25.1413 351.46 26.592C352.313 28 352.868 29.6427 353.124 31.52C353.423 33.3547 353.444 35.2747 353.188 37.28C352.932 39.3707 352.377 41.3547 351.524 43.232C350.671 45.0667 349.604 46.688 348.324 48.096C347.044 49.504 345.551 50.6133 343.844 51.424C342.18 52.192 340.367 52.576 338.404 52.576C335.844 52.576 333.668 51.8933 331.876 50.528C330.084 49.12 328.761 47.264 327.908 44.96C327.097 42.6133 326.863 40.032 327.204 37.216ZM338.596 37.28C338.468 38.3467 338.532 39.392 338.788 40.416C339.087 41.44 339.599 42.272 340.324 42.912C341.092 43.552 342.031 43.872 343.14 43.872C343.993 43.9147 344.804 43.7653 345.572 43.424C346.383 43.0827 347.108 42.592 347.748 41.952C348.431 41.312 348.985 40.5867 349.412 39.776C349.881 38.9653 350.201 38.112 350.372 37.216C350.5 36.3627 350.479 35.552 350.308 34.784C350.18 34.016 349.924 33.3333 349.54 32.736C349.156 32.096 348.665 31.6053 348.068 31.264C347.471 30.88 346.788 30.6667 346.02 30.624C344.868 30.5813 343.759 30.88 342.692 31.52C341.625 32.1173 340.729 32.928 340.004 33.952C339.279 34.976 338.809 36.0853 338.596 37.28ZM384.568 34.08C384.653 33.2693 384.653 32.5227 384.568 31.84C384.525 31.1147 384.29 30.5173 383.864 30.048C383.437 29.536 382.733 29.28 381.752 29.28C380.856 29.28 380.066 29.472 379.384 29.856C378.701 30.24 378.146 30.7733 377.72 31.456C377.293 32.1387 376.994 32.9707 376.824 33.952L373.688 52H362.808L367.864 22.56H378.744L378.168 26.592C379.149 25.1413 380.365 23.9893 381.816 23.136C383.309 22.2827 385.101 21.856 387.192 21.856C389.624 21.8133 391.544 22.2827 392.952 23.264C394.36 24.2453 395.298 25.568 395.768 27.232C396.28 28.896 396.365 30.7947 396.024 32.928L392.76 52H381.368L384.568 34.08ZM395.528 54.112L405.896 54.176C405.982 55.2 406.195 56.032 406.536 56.672C406.878 57.3547 407.39 57.8667 408.072 58.208C408.755 58.592 409.608 58.784 410.632 58.784C412.04 58.784 413.299 58.464 414.408 57.824C415.518 57.184 416.435 56.288 417.16 55.136C417.886 54.0267 418.355 52.7467 418.568 51.296L423.56 22.56H433.992L429.128 51.36C428.574 54.816 427.443 57.7387 425.736 60.128C424.072 62.5173 421.918 64.3307 419.272 65.568C416.67 66.8053 413.726 67.424 410.44 67.424C407.07 67.424 404.275 66.8907 402.056 65.824C399.88 64.7573 398.259 63.2213 397.192 61.216C396.168 59.2533 395.614 56.8853 395.528 54.112ZM398.024 36.704C398.408 33.76 399.347 31.1787 400.84 28.96C402.376 26.7413 404.254 25.0133 406.472 23.776C408.734 22.5387 411.123 21.92 413.64 21.92C415.603 21.92 417.288 22.3253 418.696 23.136C420.147 23.904 421.299 24.9707 422.152 26.336C423.048 27.7013 423.646 29.28 423.944 31.072C424.243 32.8213 424.264 34.72 424.008 36.768C423.752 38.8587 423.198 40.8213 422.344 42.656C421.491 44.448 420.424 46.0267 419.144 47.392C417.864 48.7147 416.392 49.76 414.728 50.528C413.064 51.2533 411.272 51.616 409.352 51.616C406.792 51.616 404.595 50.976 402.76 49.696C400.926 48.3733 399.582 46.6027 398.728 44.384C397.875 42.1227 397.64 39.5627 398.024 36.704ZM409.352 36.832C409.224 37.9413 409.31 38.9653 409.608 39.904C409.95 40.8 410.483 41.5253 411.208 42.08C411.976 42.592 412.936 42.848 414.088 42.848C414.856 42.8907 415.624 42.7627 416.392 42.464C417.16 42.1653 417.886 41.7387 418.568 41.184C419.251 40.6293 419.806 39.968 420.232 39.2C420.702 38.432 421.022 37.6 421.192 36.704C421.278 35.808 421.235 34.9973 421.064 34.272C420.936 33.5467 420.659 32.9067 420.232 32.352C419.848 31.7973 419.358 31.3707 418.76 31.072C418.163 30.7733 417.48 30.624 416.712 30.624C415.475 30.5813 414.323 30.8373 413.256 31.392C412.232 31.9467 411.379 32.6933 410.696 33.632C410.014 34.5707 409.566 35.6373 409.352 36.832ZM449.641 52.64C446.484 52.64 443.753 52.1067 441.449 51.04C439.145 49.9307 437.353 48.3733 436.073 46.368C434.793 44.3627 434.153 41.9733 434.153 39.2C434.153 36.7253 434.601 34.4427 435.497 32.352C436.436 30.2187 437.737 28.384 439.401 26.848C441.108 25.312 443.135 24.1173 445.481 23.264C447.828 22.368 450.431 21.92 453.289 21.92C456.447 21.92 459.071 22.4533 461.161 23.52C463.295 24.5867 464.895 26.1013 465.961 28.064C467.028 29.984 467.561 32.3093 467.561 35.04C467.561 35.7653 467.497 36.5333 467.369 37.344C467.241 38.1547 467.071 38.9013 466.857 39.584H439.529V33.888H457.897L455.529 36.832C455.785 36.448 455.999 36.0213 456.169 35.552C456.34 35.0827 456.425 34.6773 456.425 34.336C456.425 33.2267 456.276 32.2667 455.977 31.456C455.679 30.6453 455.231 30.0267 454.633 29.6C454.036 29.1733 453.225 28.96 452.201 28.96C451.22 28.96 450.324 29.152 449.513 29.536C448.745 29.92 448.084 30.4747 447.529 31.2C446.975 31.8827 446.505 32.7573 446.121 33.824C445.737 34.8907 445.417 36.1493 445.161 37.6C444.863 39.0507 444.863 40.352 445.161 41.504C445.503 42.6133 446.079 43.488 446.889 44.128C447.743 44.7253 448.788 45.024 450.025 45.024C451.519 45.024 452.799 44.7253 453.865 44.128C454.975 43.5307 455.892 42.6987 456.617 41.632L466.281 43.616C464.745 46.56 462.569 48.8 459.753 50.336C456.937 51.872 453.567 52.64 449.641 52.64ZM145.2 91.456L139.184 112H126.064L141.744 64.96L156.144 90.624L179.76 64.576L179.184 112H166.256L167.28 91.84L153.52 107.904L145.2 91.456ZM184.541 97.216C184.967 94.144 186.077 91.456 187.869 89.152C189.661 86.848 191.922 85.056 194.653 83.776C197.383 82.496 200.327 81.856 203.485 81.856C206.599 81.856 209.33 82.5173 211.677 83.84C214.066 85.1627 215.858 86.9973 217.053 89.344C218.29 91.648 218.717 94.2933 218.333 97.28C217.949 100.352 216.839 103.04 215.005 105.344C213.213 107.648 210.951 109.44 208.221 110.72C205.533 112 202.589 112.64 199.389 112.64C196.274 112.64 193.522 112 191.133 110.72C188.786 109.397 186.994 107.584 185.757 105.28C184.562 102.933 184.157 100.245 184.541 97.216ZM195.677 97.28C195.549 98.3893 195.634 99.4347 195.933 100.416C196.274 101.355 196.786 102.123 197.469 102.72C198.194 103.317 199.09 103.616 200.157 103.616C201.309 103.659 202.375 103.403 203.357 102.848C204.338 102.251 205.17 101.461 205.853 100.48C206.578 99.4987 207.005 98.4107 207.133 97.216C207.303 96.064 207.239 95.0187 206.941 94.08C206.642 93.1413 206.13 92.3733 205.405 91.776C204.679 91.1787 203.762 90.8587 202.653 90.816C201.586 90.7733 200.541 91.0507 199.517 91.648C198.535 92.2453 197.703 93.0347 197.021 94.016C196.338 94.9973 195.89 96.0853 195.677 97.28ZM249.498 62.08H260.442L251.866 112H240.922L249.498 62.08ZM220.314 97.216C220.698 94.272 221.637 91.648 223.13 89.344C224.666 87.04 226.565 85.2267 228.826 83.904C231.087 82.5813 233.498 81.92 236.058 81.92C238.063 81.92 239.77 82.3467 241.178 83.2C242.586 84.0107 243.717 85.1413 244.57 86.592C245.423 88 245.978 89.6427 246.234 91.52C246.533 93.3547 246.554 95.2747 246.298 97.28C246.042 99.3707 245.487 101.355 244.634 103.232C243.781 105.067 242.714 106.688 241.434 108.096C240.154 109.504 238.661 110.613 236.954 111.424C235.29 112.192 233.477 112.576 231.514 112.576C228.954 112.576 226.778 111.893 224.986 110.528C223.194 109.12 221.871 107.264 221.018 104.96C220.207 102.613 219.973 100.032 220.314 97.216ZM231.706 97.28C231.578 98.3467 231.642 99.392 231.898 100.416C232.197 101.44 232.709 102.272 233.434 102.912C234.202 103.552 235.141 103.872 236.25 103.872C237.103 103.915 237.914 103.765 238.682 103.424C239.493 103.083 240.218 102.592 240.858 101.952C241.541 101.312 242.095 100.587 242.522 99.776C242.991 98.9653 243.311 98.112 243.482 97.216C243.61 96.3627 243.589 95.552 243.418 94.784C243.29 94.016 243.034 93.3333 242.65 92.736C242.266 92.096 241.775 91.6053 241.178 91.264C240.581 90.88 239.898 90.6667 239.13 90.624C237.978 90.5813 236.869 90.88 235.802 91.52C234.735 92.1173 233.839 92.928 233.114 93.952C232.389 94.976 231.919 96.0853 231.706 97.28ZM273.902 112.64C270.744 112.64 268.014 112.107 265.71 111.04C263.406 109.931 261.614 108.373 260.334 106.368C259.054 104.363 258.414 101.973 258.414 99.2C258.414 96.7253 258.862 94.4427 259.758 92.352C260.696 90.2187 261.998 88.384 263.662 86.848C265.368 85.312 267.395 84.1173 269.742 83.264C272.088 82.368 274.691 81.92 277.55 81.92C280.707 81.92 283.331 82.4533 285.422 83.52C287.555 84.5867 289.155 86.1013 290.222 88.064C291.288 89.984 291.822 92.3093 291.822 95.04C291.822 95.7653 291.758 96.5333 291.63 97.344C291.502 98.1547 291.331 98.9013 291.118 99.584H263.79V93.888H282.158L279.79 96.832C280.046 96.448 280.259 96.0213 280.43 95.552C280.6 95.0827 280.686 94.6773 280.686 94.336C280.686 93.2267 280.536 92.2667 280.238 91.456C279.939 90.6453 279.491 90.0267 278.894 89.6C278.296 89.1733 277.486 88.96 276.462 88.96C275.48 88.96 274.584 89.152 273.774 89.536C273.006 89.92 272.344 90.4747 271.79 91.2C271.235 91.8827 270.766 92.7573 270.382 93.824C269.998 94.8907 269.678 96.1493 269.422 97.6C269.123 99.0507 269.123 100.352 269.422 101.504C269.763 102.613 270.339 103.488 271.15 104.128C272.003 104.725 273.048 105.024 274.286 105.024C275.779 105.024 277.059 104.725 278.126 104.128C279.235 103.531 280.152 102.699 280.878 101.632L290.542 103.616C289.006 106.56 286.83 108.8 284.014 110.336C281.198 111.872 277.827 112.64 273.902 112.64ZM308.349 82.56L303.229 112H292.605L297.661 82.56H308.349ZM314.941 93.824C314.514 93.3547 314.045 92.9707 313.533 92.672C313.021 92.3307 312.402 92.16 311.677 92.16C310.653 92.1173 309.714 92.3947 308.861 92.992C308.008 93.5467 307.282 94.3147 306.685 95.296C306.088 96.2773 305.725 97.3227 305.597 98.432L304.381 94.016C304.765 91.968 305.533 90.0267 306.685 88.192C307.88 86.3147 309.288 84.7787 310.909 83.584C312.53 82.3893 314.173 81.792 315.837 81.792C316.946 81.792 317.906 82.048 318.717 82.56C319.57 83.072 320.274 83.712 320.829 84.48L314.941 93.824ZM345.14 82.56H356.02L350.964 112H340.084L345.14 82.56ZM319.412 97.216C319.796 94.272 320.734 91.648 322.228 89.344C323.764 87.04 325.662 85.2267 327.924 83.904C330.185 82.5813 332.596 81.92 335.156 81.92C337.161 81.92 338.868 82.3467 340.276 83.2C341.684 84.0107 342.814 85.1413 343.668 86.592C344.521 88 345.076 89.6427 345.332 91.52C345.63 93.3547 345.652 95.2747 345.396 97.28C345.14 99.3707 344.585 101.355 343.732 103.232C342.878 105.067 341.812 106.688 340.532 108.096C339.252 109.504 337.758 110.613 336.052 111.424C334.388 112.192 332.574 112.576 330.612 112.576C328.052 112.576 325.876 111.893 324.084 110.528C322.292 109.12 320.969 107.264 320.116 104.96C319.305 102.613 319.07 100.032 319.412 97.216ZM330.804 97.28C330.676 98.3467 330.74 99.392 330.996 100.416C331.294 101.44 331.806 102.272 332.532 102.912C333.3 103.552 334.238 103.872 335.348 103.872C336.201 103.915 337.012 103.765 337.78 103.424C338.59 103.083 339.316 102.592 339.956 101.952C340.638 101.312 341.193 100.587 341.62 99.776C342.089 98.9653 342.409 98.112 342.58 97.216C342.708 96.3627 342.686 95.552 342.516 94.784C342.388 94.016 342.132 93.3333 341.748 92.736C341.364 92.096 340.873 91.6053 340.276 91.264C339.678 90.88 338.996 90.6667 338.228 90.624C337.076 90.5813 335.966 90.88 334.9 91.52C333.833 92.1173 332.937 92.928 332.212 93.952C331.486 94.976 331.017 96.0853 330.804 97.28ZM358.279 82.56H379.015L377.415 91.52H356.679L358.279 82.56ZM365.127 72.32H375.559L368.711 112H358.343L365.127 72.32ZM392.906 112.64C389.749 112.64 387.018 112.107 384.714 111.04C382.41 109.931 380.618 108.373 379.338 106.368C378.058 104.363 377.418 101.973 377.418 99.2C377.418 96.7253 377.866 94.4427 378.762 92.352C379.701 90.2187 381.002 88.384 382.666 86.848C384.373 85.312 386.4 84.1173 388.746 83.264C391.093 82.368 393.696 81.92 396.554 81.92C399.712 81.92 402.336 82.4533 404.426 83.52C406.56 84.5867 408.16 86.1013 409.226 88.064C410.293 89.984 410.826 92.3093 410.826 95.04C410.826 95.7653 410.762 96.5333 410.634 97.344C410.506 98.1547 410.336 98.9013 410.122 99.584H382.794V93.888H401.162L398.794 96.832C399.05 96.448 399.264 96.0213 399.434 95.552C399.605 95.0827 399.69 94.6773 399.69 94.336C399.69 93.2267 399.541 92.2667 399.242 91.456C398.944 90.6453 398.496 90.0267 397.898 89.6C397.301 89.1733 396.49 88.96 395.466 88.96C394.485 88.96 393.589 89.152 392.778 89.536C392.01 89.92 391.349 90.4747 390.794 91.2C390.24 91.8827 389.77 92.7573 389.386 93.824C389.002 94.8907 388.682 96.1493 388.426 97.6C388.128 99.0507 388.128 100.352 388.426 101.504C388.768 102.613 389.344 103.488 390.154 104.128C391.008 104.725 392.053 105.024 393.29 105.024C394.784 105.024 396.064 104.725 397.13 104.128C398.24 103.531 399.157 102.699 399.882 101.632L409.546 103.616C408.01 106.56 405.834 108.8 403.018 110.336C400.202 111.872 396.832 112.64 392.906 112.64ZM415.514 100.8C416.751 101.867 417.925 102.763 419.034 103.488C420.143 104.213 421.189 104.768 422.17 105.152C423.194 105.493 424.133 105.621 424.986 105.536C425.669 105.493 426.266 105.28 426.778 104.896C427.29 104.512 427.567 104.043 427.61 103.488C427.653 102.848 427.461 102.336 427.034 101.952C426.65 101.568 426.053 101.205 425.242 100.864C424.431 100.523 423.493 100.16 422.426 99.776C421.061 99.264 419.802 98.624 418.65 97.856C417.541 97.088 416.687 96.0853 416.09 94.848C415.493 93.6107 415.279 92.16 415.45 90.496C415.663 88.576 416.325 86.9973 417.434 85.76C418.543 84.48 419.973 83.52 421.722 82.88C423.514 82.24 425.434 81.92 427.482 81.92C429.914 81.92 432.154 82.304 434.202 83.072C436.293 83.84 438.255 84.7787 440.09 85.888L436.058 93.184C434.949 92.0747 433.669 91.136 432.218 90.368C430.81 89.5573 429.423 89.152 428.058 89.152C427.333 89.152 426.693 89.3013 426.138 89.6C425.626 89.8987 425.327 90.304 425.242 90.816C425.157 91.4987 425.391 92.0533 425.946 92.48C426.543 92.864 427.311 93.2267 428.25 93.568C429.231 93.8667 430.234 94.208 431.258 94.592C432.623 95.1467 433.861 95.808 434.97 96.576C436.079 97.344 436.954 98.304 437.594 99.456C438.234 100.565 438.469 101.952 438.298 103.616C438.127 105.749 437.487 107.541 436.378 108.992C435.311 110.4 433.882 111.467 432.09 112.192C430.341 112.917 428.357 113.301 426.138 113.344C424.09 113.344 422.17 113.131 420.378 112.704C418.586 112.277 416.879 111.68 415.258 110.912C413.637 110.144 412.079 109.269 410.586 108.288L415.514 100.8Z" fill="#FF00B4"/>
<g filter="url(#filter0_d_2_9)">
<path fill-rule="evenodd" clip-rule="evenodd" d="M45.8925 1.79204C21.7939 8.04596 4 29.945 4 56C4 69.7991 8.99105 82.4326 17.2664 92.1935L45.8925 1.79204ZM32.2096 104.629C40.3989 109.319 49.8863 112 60 112C90.9279 112 116 86.9279 116 56C116 26.847 93.7232 2.89712 65.2635 0.24411L32.2096 104.629Z" fill="#FF00B4"/>
</g>
<defs>
<filter id="filter0_d_2_9" x="0" y="0.24411" width="120" height="119.756" filterUnits="userSpaceOnUse" color-interpolation-filters="sRGB">
<feFlood flood-opacity="0" result="BackgroundImageFix"/>
<feColorMatrix in="SourceAlpha" type="matrix" values="0 0 0 0 0 0 0 0 0 0 0 0 0 0 0 0 0 0 127 0" result="hardAlpha"/>
<feOffset dy="4"/>
<feGaussianBlur stdDeviation="2"/>
<feComposite in2="hardAlpha" operator="out"/>
<feColorMatrix type="matrix" values="0 0 0 0 0 0 0 0 0 0 0 0 0 0 0 0 0 0 0.25 0"/>
<feBlend mode="normal" in2="BackgroundImageFix" result="effect1_dropShadow_2_9"/>
<feBlend mode="normal" in="SourceGraphic" in2="effect1_dropShadow_2_9" result="shape"/>
</filter>
</defs>
</svg>
