<svg width="465" height="120" viewBox="0 0 465 120" fill="none" xmlns="http://www.w3.org/2000/svg">
<path d="M138.64 17.76L140.496 7.2H160.144L158.288 17.76H138.64ZM135.696 35.104L137.424 25.376H156.432L154.704 35.168L135.696 35.104ZM132.304 7.2H144.016L136.336 52H124.624L132.304 7.2ZM170.847 22.56L165.727 52H155.103L160.159 22.56H170.847ZM177.439 33.824C177.012 33.3547 176.543 32.9707 176.031 32.672C175.519 32.3307 174.9 32.16 174.175 32.16C173.151 32.1173 172.212 32.3947 171.359 32.992C170.505 33.5467 169.78 34.3147 169.183 35.296C168.585 36.2773 168.223 37.3227 168.095 38.432L166.879 34.016C167.263 31.968 168.031 30.0267 169.183 28.192C170.377 26.3147 171.785 24.7787 173.407 23.584C175.028 22.3893 176.671 21.792 178.335 21.792C179.444 21.792 180.404 22.048 181.215 22.56C182.068 23.072 182.772 23.712 183.327 24.48L177.439 33.824ZM180.076 37.216C180.502 34.144 181.612 31.456 183.404 29.152C185.196 26.848 187.457 25.056 190.188 23.776C192.918 22.496 195.862 21.856 199.02 21.856C202.134 21.856 204.865 22.5173 207.212 23.84C209.601 25.1627 211.393 26.9973 212.588 29.344C213.825 31.648 214.252 34.2933 213.868 37.28C213.484 40.352 212.374 43.04 210.54 45.344C208.748 47.648 206.486 49.44 203.756 50.72C201.068 52 198.124 52.64 194.924 52.64C191.809 52.64 189.057 52 186.668 50.72C184.321 49.3973 182.529 47.584 181.292 45.28C180.097 42.9333 179.692 40.2453 180.076 37.216ZM191.212 37.28C191.084 38.3893 191.169 39.4347 191.468 40.416C191.809 41.3547 192.321 42.1227 193.004 42.72C193.729 43.3173 194.625 43.616 195.692 43.616C196.844 43.6587 197.91 43.4027 198.892 42.848C199.873 42.2507 200.705 41.4613 201.388 40.48C202.113 39.4987 202.54 38.4107 202.668 37.216C202.838 36.064 202.774 35.0187 202.476 34.08C202.177 33.1413 201.665 32.3733 200.94 31.776C200.214 31.1787 199.297 30.8587 198.188 30.816C197.121 30.7733 196.076 31.0507 195.052 31.648C194.07 32.2453 193.238 33.0347 192.556 34.016C191.873 34.9973 191.425 36.0853 191.212 37.28ZM235.305 34.08C235.39 33.2693 235.39 32.5227 235.305 31.84C235.262 31.1147 235.028 30.5173 234.601 30.048C234.174 29.536 233.47 29.28 232.489 29.28C231.593 29.28 230.804 29.472 230.121 29.856C229.438 30.24 228.884 30.7733 228.457 31.456C228.03 32.1387 227.732 32.9707 227.561 33.952L224.425 52H213.545L218.601 22.56H229.481L228.905 26.592C229.886 25.1413 231.102 23.9893 232.553 23.136C234.046 22.2827 235.838 21.856 237.929 21.856C240.361 21.8133 242.281 22.2827 243.689 23.264C245.097 24.2453 246.036 25.568 246.505 27.232C247.017 28.896 247.102 30.7947 246.761 32.928L243.497 52H232.105L235.305 34.08ZM249.594 22.56H270.33L268.73 31.52H247.994L249.594 22.56ZM256.442 12.32H266.874L260.026 52H249.658L256.442 12.32ZM299.312 32.224H311.536L321.136 52H307.312L299.312 32.224ZM291.632 7.2H303.856L296.175 52H283.951L291.632 7.2ZM297.583 17.696L299.312 7.2H308.464C311.962 7.2 314.928 7.81866 317.36 9.056C319.792 10.2933 321.583 12.0427 322.736 14.304C323.888 16.5227 324.272 19.1467 323.888 22.176C323.504 25.248 322.416 27.9147 320.624 30.176C318.874 32.4373 316.57 34.1653 313.712 35.36C310.896 36.5547 307.674 37.152 304.048 37.152H294.127L295.856 27.744H303.983C305.178 27.744 306.266 27.552 307.248 27.168C308.272 26.7413 309.125 26.144 309.808 25.376C310.49 24.608 310.917 23.6907 311.088 22.624C311.301 21.6 311.216 20.7253 310.832 20C310.49 19.2747 309.914 18.72 309.104 18.336C308.336 17.9093 307.376 17.696 306.224 17.696H297.583ZM348.932 22.56H359.812L354.756 52H343.876L348.932 22.56ZM323.204 37.216C323.588 34.272 324.527 31.648 326.02 29.344C327.556 27.04 329.455 25.2267 331.716 23.904C333.977 22.5813 336.388 21.92 338.948 21.92C340.953 21.92 342.66 22.3467 344.068 23.2C345.476 24.0107 346.607 25.1413 347.46 26.592C348.313 28 348.868 29.6427 349.124 31.52C349.423 33.3547 349.444 35.2747 349.188 37.28C348.932 39.3707 348.377 41.3547 347.524 43.232C346.671 45.0667 345.604 46.688 344.324 48.096C343.044 49.504 341.551 50.6133 339.844 51.424C338.18 52.192 336.367 52.576 334.404 52.576C331.844 52.576 329.668 51.8933 327.876 50.528C326.084 49.12 324.761 47.264 323.908 44.96C323.097 42.6133 322.863 40.032 323.204 37.216ZM334.596 37.28C334.468 38.3467 334.532 39.392 334.788 40.416C335.087 41.44 335.599 42.272 336.324 42.912C337.092 43.552 338.031 43.872 339.14 43.872C339.993 43.9147 340.804 43.7653 341.572 43.424C342.383 43.0827 343.108 42.592 343.748 41.952C344.431 41.312 344.985 40.5867 345.412 39.776C345.881 38.9653 346.201 38.112 346.372 37.216C346.5 36.3627 346.479 35.552 346.308 34.784C346.18 34.016 345.924 33.3333 345.54 32.736C345.156 32.096 344.665 31.6053 344.068 31.264C343.471 30.88 342.788 30.6667 342.02 30.624C340.868 30.5813 339.759 30.88 338.692 31.52C337.625 32.1173 336.729 32.928 336.004 33.952C335.279 34.976 334.809 36.0853 334.596 37.28ZM380.568 34.08C380.653 33.2693 380.653 32.5227 380.568 31.84C380.525 31.1147 380.29 30.5173 379.864 30.048C379.437 29.536 378.733 29.28 377.752 29.28C376.856 29.28 376.066 29.472 375.384 29.856C374.701 30.24 374.146 30.7733 373.72 31.456C373.293 32.1387 372.994 32.9707 372.824 33.952L369.688 52H358.808L363.864 22.56H374.744L374.168 26.592C375.149 25.1413 376.365 23.9893 377.816 23.136C379.309 22.2827 381.101 21.856 383.192 21.856C385.624 21.8133 387.544 22.2827 388.952 23.264C390.36 24.2453 391.298 25.568 391.768 27.232C392.28 28.896 392.365 30.7947 392.024 32.928L388.76 52H377.368L380.568 34.08ZM391.528 54.112L401.896 54.176C401.982 55.2 402.195 56.032 402.536 56.672C402.878 57.3547 403.39 57.8667 404.072 58.208C404.755 58.592 405.608 58.784 406.632 58.784C408.04 58.784 409.299 58.464 410.408 57.824C411.518 57.184 412.435 56.288 413.16 55.136C413.886 54.0267 414.355 52.7467 414.568 51.296L419.56 22.56H429.992L425.128 51.36C424.574 54.816 423.443 57.7387 421.736 60.128C420.072 62.5173 417.918 64.3307 415.272 65.568C412.67 66.8053 409.726 67.424 406.44 67.424C403.07 67.424 400.275 66.8907 398.056 65.824C395.88 64.7573 394.259 63.2213 393.192 61.216C392.168 59.2533 391.614 56.8853 391.528 54.112ZM394.024 36.704C394.408 33.76 395.347 31.1787 396.84 28.96C398.376 26.7413 400.254 25.0133 402.472 23.776C404.734 22.5387 407.123 21.92 409.64 21.92C411.603 21.92 413.288 22.3253 414.696 23.136C416.147 23.904 417.299 24.9707 418.152 26.336C419.048 27.7013 419.646 29.28 419.944 31.072C420.243 32.8213 420.264 34.72 420.008 36.768C419.752 38.8587 419.198 40.8213 418.344 42.656C417.491 44.448 416.424 46.0267 415.144 47.392C413.864 48.7147 412.392 49.76 410.728 50.528C409.064 51.2533 407.272 51.616 405.352 51.616C402.792 51.616 400.595 50.976 398.76 49.696C396.926 48.3733 395.582 46.6027 394.728 44.384C393.875 42.1227 393.64 39.5627 394.024 36.704ZM405.352 36.832C405.224 37.9413 405.31 38.9653 405.608 39.904C405.95 40.8 406.483 41.5253 407.208 42.08C407.976 42.592 408.936 42.848 410.088 42.848C410.856 42.8907 411.624 42.7627 412.392 42.464C413.16 42.1653 413.886 41.7387 414.568 41.184C415.251 40.6293 415.806 39.968 416.232 39.2C416.702 38.432 417.022 37.6 417.192 36.704C417.278 35.808 417.235 34.9973 417.064 34.272C416.936 33.5467 416.659 32.9067 416.232 32.352C415.848 31.7973 415.358 31.3707 414.76 31.072C414.163 30.7733 413.48 30.624 412.712 30.624C411.475 30.5813 410.323 30.8373 409.256 31.392C408.232 31.9467 407.379 32.6933 406.696 33.632C406.014 34.5707 405.566 35.6373 405.352 36.832ZM445.641 52.64C442.484 52.64 439.753 52.1067 437.449 51.04C435.145 49.9307 433.353 48.3733 432.073 46.368C430.793 44.3627 430.153 41.9733 430.153 39.2C430.153 36.7253 430.601 34.4427 431.497 32.352C432.436 30.2187 433.737 28.384 435.401 26.848C437.108 25.312 439.135 24.1173 441.481 23.264C443.828 22.368 446.431 21.92 449.289 21.92C452.447 21.92 455.071 22.4533 457.161 23.52C459.295 24.5867 460.895 26.1013 461.961 28.064C463.028 29.984 463.561 32.3093 463.561 35.04C463.561 35.7653 463.497 36.5333 463.369 37.344C463.241 38.1547 463.071 38.9013 462.857 39.584H435.529V33.888H453.897L451.529 36.832C451.785 36.448 451.999 36.0213 452.169 35.552C452.34 35.0827 452.425 34.6773 452.425 34.336C452.425 33.2267 452.276 32.2667 451.977 31.456C451.679 30.6453 451.231 30.0267 450.633 29.6C450.036 29.1733 449.225 28.96 448.201 28.96C447.22 28.96 446.324 29.152 445.513 29.536C444.745 29.92 444.084 30.4747 443.529 31.2C442.975 31.8827 442.505 32.7573 442.121 33.824C441.737 34.8907 441.417 36.1493 441.161 37.6C440.863 39.0507 440.863 40.352 441.161 41.504C441.503 42.6133 442.079 43.488 442.889 44.128C443.743 44.7253 444.788 45.024 446.025 45.024C447.519 45.024 448.799 44.7253 449.865 44.128C450.975 43.5307 451.892 42.6987 452.617 41.632L462.281 43.616C460.745 46.56 458.569 48.8 455.753 50.336C452.937 51.872 449.567 52.64 445.641 52.64ZM141.2 91.456L135.184 112H122.064L137.744 64.96L152.144 90.624L175.76 64.576L175.184 112H162.256L163.28 91.84L149.52 107.904L141.2 91.456ZM180.541 97.216C180.967 94.144 182.077 91.456 183.869 89.152C185.661 86.848 187.922 85.056 190.653 83.776C193.383 82.496 196.327 81.856 199.485 81.856C202.599 81.856 205.33 82.5173 207.677 83.84C210.066 85.1627 211.858 86.9973 213.053 89.344C214.29 91.648 214.717 94.2933 214.333 97.28C213.949 100.352 212.839 103.04 211.005 105.344C209.213 107.648 206.951 109.44 204.221 110.72C201.533 112 198.589 112.64 195.389 112.64C192.274 112.64 189.522 112 187.133 110.72C184.786 109.397 182.994 107.584 181.757 105.28C180.562 102.933 180.157 100.245 180.541 97.216ZM191.677 97.28C191.549 98.3893 191.634 99.4347 191.933 100.416C192.274 101.355 192.786 102.123 193.469 102.72C194.194 103.317 195.09 103.616 196.157 103.616C197.309 103.659 198.375 103.403 199.357 102.848C200.338 102.251 201.17 101.461 201.853 100.48C202.578 99.4987 203.005 98.4107 203.133 97.216C203.303 96.064 203.239 95.0187 202.941 94.08C202.642 93.1413 202.13 92.3733 201.405 91.776C200.679 91.1787 199.762 90.8587 198.653 90.816C197.586 90.7733 196.541 91.0507 195.517 91.648C194.535 92.2453 193.703 93.0347 193.021 94.016C192.338 94.9973 191.89 96.0853 191.677 97.28ZM245.498 62.08H256.442L247.866 112H236.922L245.498 62.08ZM216.314 97.216C216.698 94.272 217.637 91.648 219.13 89.344C220.666 87.04 222.565 85.2267 224.826 83.904C227.087 82.5813 229.498 81.92 232.058 81.92C234.063 81.92 235.77 82.3467 237.178 83.2C238.586 84.0107 239.717 85.1413 240.57 86.592C241.423 88 241.978 89.6427 242.234 91.52C242.533 93.3547 242.554 95.2747 242.298 97.28C242.042 99.3707 241.487 101.355 240.634 103.232C239.781 105.067 238.714 106.688 237.434 108.096C236.154 109.504 234.661 110.613 232.954 111.424C231.29 112.192 229.477 112.576 227.514 112.576C224.954 112.576 222.778 111.893 220.986 110.528C219.194 109.12 217.871 107.264 217.018 104.96C216.207 102.613 215.973 100.032 216.314 97.216ZM227.706 97.28C227.578 98.3467 227.642 99.392 227.898 100.416C228.197 101.44 228.709 102.272 229.434 102.912C230.202 103.552 231.141 103.872 232.25 103.872C233.103 103.915 233.914 103.765 234.682 103.424C235.493 103.083 236.218 102.592 236.858 101.952C237.541 101.312 238.095 100.587 238.522 99.776C238.991 98.9653 239.311 98.112 239.482 97.216C239.61 96.3627 239.589 95.552 239.418 94.784C239.29 94.016 239.034 93.3333 238.65 92.736C238.266 92.096 237.775 91.6053 237.178 91.264C236.581 90.88 235.898 90.6667 235.13 90.624C233.978 90.5813 232.869 90.88 231.802 91.52C230.735 92.1173 229.839 92.928 229.114 93.952C228.389 94.976 227.919 96.0853 227.706 97.28ZM269.902 112.64C266.744 112.64 264.014 112.107 261.71 111.04C259.406 109.931 257.614 108.373 256.334 106.368C255.054 104.363 254.414 101.973 254.414 99.2C254.414 96.7253 254.862 94.4427 255.758 92.352C256.696 90.2187 257.998 88.384 259.662 86.848C261.368 85.312 263.395 84.1173 265.742 83.264C268.088 82.368 270.691 81.92 273.55 81.92C276.707 81.92 279.331 82.4533 281.422 83.52C283.555 84.5867 285.155 86.1013 286.222 88.064C287.288 89.984 287.822 92.3093 287.822 95.04C287.822 95.7653 287.758 96.5333 287.63 97.344C287.502 98.1547 287.331 98.9013 287.118 99.584H259.79V93.888H278.158L275.79 96.832C276.046 96.448 276.259 96.0213 276.43 95.552C276.6 95.0827 276.686 94.6773 276.686 94.336C276.686 93.2267 276.536 92.2667 276.238 91.456C275.939 90.6453 275.491 90.0267 274.894 89.6C274.296 89.1733 273.486 88.96 272.462 88.96C271.48 88.96 270.584 89.152 269.774 89.536C269.006 89.92 268.344 90.4747 267.79 91.2C267.235 91.8827 266.766 92.7573 266.382 93.824C265.998 94.8907 265.678 96.1493 265.422 97.6C265.123 99.0507 265.123 100.352 265.422 101.504C265.763 102.613 266.339 103.488 267.15 104.128C268.003 104.725 269.048 105.024 270.286 105.024C271.779 105.024 273.059 104.725 274.126 104.128C275.235 103.531 276.152 102.699 276.878 101.632L286.542 103.616C285.006 106.56 282.83 108.8 280.014 110.336C277.198 111.872 273.827 112.64 269.902 112.64ZM304.349 82.56L299.229 112H288.605L293.661 82.56H304.349ZM310.941 93.824C310.514 93.3547 310.045 92.9707 309.533 92.672C309.021 92.3307 308.402 92.16 307.677 92.16C306.653 92.1173 305.714 92.3947 304.861 92.992C304.008 93.5467 303.282 94.3147 302.685 95.296C302.088 96.2773 301.725 97.3227 301.597 98.432L300.381 94.016C300.765 91.968 301.533 90.0267 302.685 88.192C303.88 86.3147 305.288 84.7787 306.909 83.584C308.53 82.3893 310.173 81.792 311.837 81.792C312.946 81.792 313.906 82.048 314.717 82.56C315.57 83.072 316.274 83.712 316.829 84.48L310.941 93.824ZM341.14 82.56H352.02L346.964 112H336.084L341.14 82.56ZM315.412 97.216C315.796 94.272 316.734 91.648 318.228 89.344C319.764 87.04 321.662 85.2267 323.924 83.904C326.185 82.5813 328.596 81.92 331.156 81.92C333.161 81.92 334.868 82.3467 336.276 83.2C337.684 84.0107 338.814 85.1413 339.668 86.592C340.521 88 341.076 89.6427 341.332 91.52C341.63 93.3547 341.652 95.2747 341.396 97.28C341.14 99.3707 340.585 101.355 339.732 103.232C338.878 105.067 337.812 106.688 336.532 108.096C335.252 109.504 333.758 110.613 332.052 111.424C330.388 112.192 328.574 112.576 326.612 112.576C324.052 112.576 321.876 111.893 320.084 110.528C318.292 109.12 316.969 107.264 316.116 104.96C315.305 102.613 315.07 100.032 315.412 97.216ZM326.804 97.28C326.676 98.3467 326.74 99.392 326.996 100.416C327.294 101.44 327.806 102.272 328.532 102.912C329.3 103.552 330.238 103.872 331.348 103.872C332.201 103.915 333.012 103.765 333.78 103.424C334.59 103.083 335.316 102.592 335.956 101.952C336.638 101.312 337.193 100.587 337.62 99.776C338.089 98.9653 338.409 98.112 338.58 97.216C338.708 96.3627 338.686 95.552 338.516 94.784C338.388 94.016 338.132 93.3333 337.748 92.736C337.364 92.096 336.873 91.6053 336.276 91.264C335.678 90.88 334.996 90.6667 334.228 90.624C333.076 90.5813 331.966 90.88 330.9 91.52C329.833 92.1173 328.937 92.928 328.212 93.952C327.486 94.976 327.017 96.0853 326.804 97.28ZM354.279 82.56H375.015L373.415 91.52H352.679L354.279 82.56ZM361.127 72.32H371.559L364.711 112H354.343L361.127 72.32ZM388.906 112.64C385.749 112.64 383.018 112.107 380.714 111.04C378.41 109.931 376.618 108.373 375.338 106.368C374.058 104.363 373.418 101.973 373.418 99.2C373.418 96.7253 373.866 94.4427 374.762 92.352C375.701 90.2187 377.002 88.384 378.666 86.848C380.373 85.312 382.4 84.1173 384.746 83.264C387.093 82.368 389.696 81.92 392.554 81.92C395.712 81.92 398.336 82.4533 400.426 83.52C402.56 84.5867 404.16 86.1013 405.226 88.064C406.293 89.984 406.826 92.3093 406.826 95.04C406.826 95.7653 406.762 96.5333 406.634 97.344C406.506 98.1547 406.336 98.9013 406.122 99.584H378.794V93.888H397.162L394.794 96.832C395.05 96.448 395.264 96.0213 395.434 95.552C395.605 95.0827 395.69 94.6773 395.69 94.336C395.69 93.2267 395.541 92.2667 395.242 91.456C394.944 90.6453 394.496 90.0267 393.898 89.6C393.301 89.1733 392.49 88.96 391.466 88.96C390.485 88.96 389.589 89.152 388.778 89.536C388.01 89.92 387.349 90.4747 386.794 91.2C386.24 91.8827 385.77 92.7573 385.386 93.824C385.002 94.8907 384.682 96.1493 384.426 97.6C384.128 99.0507 384.128 100.352 384.426 101.504C384.768 102.613 385.344 103.488 386.154 104.128C387.008 104.725 388.053 105.024 389.29 105.024C390.784 105.024 392.064 104.725 393.13 104.128C394.24 103.531 395.157 102.699 395.882 101.632L405.546 103.616C404.01 106.56 401.834 108.8 399.018 110.336C396.202 111.872 392.832 112.64 388.906 112.64ZM411.514 100.8C412.751 101.867 413.925 102.763 415.034 103.488C416.143 104.213 417.189 104.768 418.17 105.152C419.194 105.493 420.133 105.621 420.986 105.536C421.669 105.493 422.266 105.28 422.778 104.896C423.29 104.512 423.567 104.043 423.61 103.488C423.653 102.848 423.461 102.336 423.034 101.952C422.65 101.568 422.053 101.205 421.242 100.864C420.431 100.523 419.493 100.16 418.426 99.776C417.061 99.264 415.802 98.624 414.65 97.856C413.541 97.088 412.687 96.0853 412.09 94.848C411.493 93.6107 411.279 92.16 411.45 90.496C411.663 88.576 412.325 86.9973 413.434 85.76C414.543 84.48 415.973 83.52 417.722 82.88C419.514 82.24 421.434 81.92 423.482 81.92C425.914 81.92 428.154 82.304 430.202 83.072C432.293 83.84 434.255 84.7787 436.09 85.888L432.058 93.184C430.949 92.0747 429.669 91.136 428.218 90.368C426.81 89.5573 425.423 89.152 424.058 89.152C423.333 89.152 422.693 89.3013 422.138 89.6C421.626 89.8987 421.327 90.304 421.242 90.816C421.157 91.4987 421.391 92.0533 421.946 92.48C422.543 92.864 423.311 93.2267 424.25 93.568C425.231 93.8667 426.234 94.208 427.258 94.592C428.623 95.1467 429.861 95.808 430.97 96.576C432.079 97.344 432.954 98.304 433.594 99.456C434.234 100.565 434.469 101.952 434.298 103.616C434.127 105.749 433.487 107.541 432.378 108.992C431.311 110.4 429.882 111.467 428.09 112.192C426.341 112.917 424.357 113.301 422.138 113.344C420.09 113.344 418.17 113.131 416.378 112.704C414.586 112.277 412.879 111.68 411.258 110.912C409.637 110.144 408.079 109.269 406.586 108.288L411.514 100.8Z" fill="#FF00B4"/>
<path fill-rule="evenodd" clip-rule="evenodd" d="M41.8925 1.79204C17.7939 8.04596 0 29.945 0 56C0 69.7991 4.99105 82.4326 13.2664 92.1935L41.8925 1.79204ZM28.2096 104.629C36.3989 109.319 45.8863 112 56 112C86.9279 112 112 86.9279 112 56C112 26.847 89.7232 2.89712 61.2635 0.24411L28.2096 104.629Z" fill="#FF00B4"/>
</svg>
